<svg width="26" height="40" viewBox="0 0 26 40" fill="none" xmlns="http://www.w3.org/2000/svg">
<path d="M5.01661 0C4.21736 0.000167847 3.43611 0.234566 2.77161 0.673565C2.10712 1.11256 1.58922 1.73645 1.28338 2.46635C0.977545 3.19625 0.897505 3.9994 1.05338 4.77426C1.20926 5.54912 1.59406 6.2609 2.15913 6.81962L15.4684 19.9755L2.15913 33.1313C1.7731 33.4998 1.4652 33.9407 1.25338 34.4281C1.04155 34.9155 0.930058 35.4397 0.925394 35.9702C0.920731 36.5007 1.02299 37.0267 1.22621 37.5177C1.42943 38.0087 1.72954 38.4548 2.10903 38.8299C2.48851 39.205 2.93978 39.5016 3.43649 39.7025C3.9332 39.9034 4.46541 40.0045 5.00206 39.9998C5.53872 39.9952 6.06907 39.885 6.56217 39.6757C7.05528 39.4663 7.50126 39.1619 7.87409 38.7803L24.0409 22.8C24.7986 22.0508 25.2242 21.0348 25.2242 19.9755C25.2242 18.9161 24.7986 17.9001 24.0409 17.1509L7.87409 1.17056C7.1163 0.42128 6.08845 0.000225067 5.01661 0Z" fill="#2C1726"/>
</svg>
