<svg width="400" height="150" viewBox="0 0 400 150" fill="none" xmlns="http://www.w3.org/2000/svg">
<rect width="400" height="150" rx="20" fill="#00B964"/>
<path d="M352.079 70.2192C352.479 69.2296 352.828 68.3203 353.207 67.4258C353.37 67.04 353.949 66.8505 354.297 67.0092C354.497 67.0995 354.436 67.2761 354.436 67.4258C354.436 69.1649 354.436 70.9039 354.445 72.6374C354.445 72.9638 354.351 73.0723 354.045 73.0723C353.738 73.0723 353.645 72.9561 353.645 72.6323C353.656 71.4014 353.652 70.1706 353.645 68.937C353.645 68.7473 353.684 68.5473 353.571 68.3009C353.216 69.235 352.76 70.0658 352.488 70.9864C352.422 71.2045 352.363 71.3825 352.108 71.4058C351.853 71.4316 351.728 71.3027 351.631 71.0524C351.352 70.3234 351.049 69.6036 350.747 68.884C350.689 68.7447 350.663 68.5704 350.47 68.4891C350.364 68.7071 350.414 68.9432 350.413 69.1652C350.407 70.3044 350.402 71.4477 350.413 72.5846C350.413 72.9188 350.346 73.071 350.001 73.0697C349.654 73.0687 349.641 72.8633 349.641 72.5846C349.646 70.9196 349.641 69.2544 349.649 67.5904C349.649 67.3723 349.517 67.0021 349.89 67.0021C350.218 67.0021 350.63 66.7749 350.843 67.309C351.19 68.1786 351.564 69.0404 351.928 69.9034C351.967 69.9937 352.007 70.0683 352.079 70.2192Z" fill="white"/>
<path d="M346.329 70.4364C346.329 69.7681 346.297 69.0973 346.34 68.4322C346.374 67.8891 346.184 67.7253 345.717 67.7859C345.454 67.8246 345.184 67.7781 344.916 67.7956C344.635 67.8085 344.495 67.7439 344.493 67.3853C344.493 67.0059 344.669 66.9892 344.93 66.9905C346.145 66.9981 347.359 67.0003 348.574 66.9905C348.865 66.9905 348.996 67.0809 348.992 67.4254C348.988 67.7738 348.828 67.8098 348.578 67.802C348.261 67.7912 347.943 67.8278 347.63 67.7934C347.243 67.7547 347.112 67.8966 347.12 68.3314C347.144 69.7226 347.12 71.1149 347.132 72.5061C347.132 72.8429 347.138 73.0881 346.703 73.079C346.268 73.0704 346.326 72.7925 346.326 72.5047C346.329 71.8132 346.33 71.124 346.329 70.4364Z" fill="white"/>
<path d="M275.181 83.6006C276.036 82.7916 276.811 82.0573 277.688 81.4683C280.207 79.776 282.957 79.2541 285.875 79.5291C287.247 79.6452 288.563 80.0027 289.824 80.6001C291.624 81.4697 292.963 82.8825 294.056 84.6216C294.238 84.9093 294.331 84.966 294.535 84.6344C296.403 81.6008 299.075 79.939 302.357 79.5021C305.608 79.0673 308.633 79.7602 311.141 82.2194C312.405 83.4618 313.113 85.0614 313.412 86.8809C313.603 88.095 313.695 89.3177 313.689 90.5492C313.702 96.7792 313.689 103.01 313.707 109.244C313.707 109.775 313.571 109.895 313.096 109.895C310.079 109.869 307.061 109.869 304.043 109.895C303.605 109.895 303.485 109.779 303.487 109.296C303.505 104.388 303.507 99.4798 303.493 94.5716C303.504 93.3923 303.391 92.2262 303.153 91.0749C302.281 87.0534 298.08 87.0287 296.208 88.9317C295.056 90.102 294.674 91.5955 294.507 93.2084C294.363 94.58 294.419 95.9561 294.417 97.3309C294.411 101.334 294.413 105.337 294.422 109.339C294.422 109.753 294.338 109.898 293.929 109.894C290.861 109.881 287.794 109.881 284.726 109.894C284.297 109.894 284.207 109.749 284.208 109.31C284.222 104.348 284.216 99.3851 284.217 94.4204C284.217 93.4062 284.185 92.3955 284.005 91.3966C283.671 89.537 282.647 88.3761 280.967 87.9186C278.985 87.3832 277.027 88.1934 275.987 89.963C275.362 91.0248 275.227 92.2454 275.219 93.4541C275.183 98.7074 275.176 103.96 275.198 109.214C275.198 109.776 275.058 109.898 274.561 109.892C271.544 109.867 268.527 109.867 265.509 109.892C265.087 109.892 264.986 109.763 264.987 109.317C264.998 99.6988 264.998 90.0811 264.987 80.4636C264.987 79.9914 265.126 79.9023 265.525 79.9049C268.576 79.9178 271.627 79.9178 274.677 79.9049C275.109 79.9049 275.207 80.052 275.195 80.4894C275.165 81.4803 275.181 82.478 275.181 83.6006Z" fill="white"/>
<path d="M244.51 106.847C243.883 107.509 243.277 108.151 242.594 108.687C241.039 109.914 239.278 110.535 237.378 110.769C234.437 111.132 231.634 110.621 229.042 109.085C224.923 106.645 222.248 102.977 221.512 97.8693C220.912 93.6837 221.354 89.6329 223.577 86.0321C225.964 82.1747 229.287 79.8141 233.567 79.1315C236.716 78.6271 239.681 79.1702 242.424 80.9672C243.153 81.4433 243.771 82.082 244.44 82.7064C244.564 82.4883 244.511 82.2715 244.511 82.0728C244.511 75.3907 244.508 68.7083 244.502 62.0255C244.502 61.4745 244.636 61.3235 245.144 61.3273C248.194 61.3531 251.246 61.3531 254.294 61.3273C254.678 61.3273 254.804 61.4305 254.804 61.8705C254.794 77.699 254.794 93.5272 254.804 109.355C254.804 109.763 254.731 109.912 254.317 109.91C251.217 109.884 248.116 109.884 245.014 109.91C244.614 109.91 244.494 109.773 244.506 109.351C244.527 108.515 244.51 107.684 244.51 106.847ZM238.382 101.63C238.748 101.63 239.119 101.669 239.482 101.623C243.203 101.13 245.715 96.9497 244.614 93.0229C243.326 88.4395 238.33 86.806 234.87 89.2307C232.352 90.9969 231.648 93.5066 232.031 96.0683C232.5 99.2247 235.225 101.847 238.382 101.63Z" fill="white"/>
<path d="M99.0678 78.7978C102.734 78.7914 105.788 79.3267 108.593 80.9715C112.494 83.267 115.248 86.6233 116.233 91.4219C117.733 98.7442 114.483 105.811 108.217 109.036C105.992 110.18 103.634 110.716 101.187 110.9C98.5757 111.096 95.9948 110.939 93.4649 110.211C88.8323 108.878 85.2781 106.01 83.3134 101.19C81.1317 95.8401 81.6818 89.3049 85.7532 84.5607C88.3001 81.5934 91.4312 79.9175 95.0624 79.2176C96.558 78.9376 98.0605 78.7862 99.0678 78.7978ZM99.3449 87.9276C98.8442 87.9165 98.3473 87.9534 97.8544 88.0566C94.1121 88.8526 91.2652 93.5268 93.3149 97.9211C94.6973 100.885 97.5713 102.359 100.75 101.739C104.345 101.037 106.661 97.1615 105.868 93.2987C105.306 90.5608 102.63 87.7929 99.3449 87.9276Z" fill="white"/>
<path d="M195.479 83.6212C196.183 82.709 196.978 81.9034 197.866 81.2062C199.34 80.0669 201.013 79.5346 202.796 79.3388C205.073 79.0898 207.317 79.1841 209.472 80.1002C212.747 81.499 214.664 84.1129 215.288 87.8691C215.458 88.8897 215.488 89.9135 215.488 90.9449C215.484 97.0662 215.487 103.187 215.497 109.308C215.497 109.792 215.38 109.906 214.943 109.904C211.91 109.878 208.875 109.878 205.84 109.904C205.334 109.904 205.251 109.735 205.252 109.233C205.269 104.198 205.269 99.1646 205.252 94.1309C205.254 93.0806 205.157 92.0409 204.96 91.0124C204.609 89.2506 203.584 88.1583 202.013 87.7802C199.942 87.2796 198.079 87.7714 196.624 89.5626C195.923 90.4245 195.688 91.4918 195.562 92.6059C195.416 93.8858 195.481 95.1721 195.479 96.4546C195.471 100.747 195.473 105.039 195.485 109.331C195.485 109.778 195.385 109.906 194.962 109.905C191.894 109.879 188.827 109.879 185.759 109.905C185.331 109.905 185.242 109.764 185.243 109.324C185.253 99.7081 185.253 90.0923 185.243 80.4764C185.243 79.9887 185.366 79.8803 185.799 79.8842C188.849 79.91 191.899 79.91 194.949 79.8842C195.349 79.8842 195.5 79.9744 195.485 80.4441C195.454 81.4582 195.479 82.4691 195.479 83.6212Z" fill="white"/>
<path d="M178.667 90.2873C178.667 93.4392 178.729 96.5911 178.65 99.7431C178.551 103.816 176.884 106.933 173.559 108.925C171.549 110.129 169.371 110.704 167.108 111C165.351 111.218 163.59 111.279 161.824 111.182C158.593 111.026 155.442 110.448 152.641 108.522C149.968 106.687 148.468 104.053 148.139 100.622C148.073 99.8102 148.046 98.9981 148.058 98.1839C148.058 92.2973 148.058 86.4097 148.046 80.5232C148.046 80.0445 148.137 79.882 148.612 79.8859C151.663 79.9117 154.714 79.9117 157.765 79.8859C158.216 79.8859 158.353 79.9891 158.351 80.5104C158.333 86.035 158.343 91.5594 158.337 97.0839C158.337 97.9793 158.425 98.8502 158.757 99.6773C159.346 101.15 160.452 101.935 161.835 102.251C163.083 102.536 164.351 102.518 165.576 102.051C167.252 101.41 168.133 100.078 168.363 98.1896C168.463 97.3612 168.458 96.5309 168.458 95.6993C168.458 90.6269 168.464 85.5555 168.447 80.483C168.447 80.0031 168.558 79.8818 168.998 79.8857C172.049 79.9115 175.1 79.9115 178.151 79.8857C178.559 79.8857 178.685 79.9889 178.682 80.4496C178.663 83.7276 178.667 87.0082 178.667 90.2873Z" fill="white"/>
<path d="M340.56 96.877H330.509C329.929 96.877 329.881 96.9414 329.957 97.5684C330.032 98.1761 330.069 98.789 330.216 99.3868C330.686 101.276 331.728 102.583 333.471 103.167C334.981 103.674 336.506 103.775 338.041 103.27C339.154 102.911 340.029 102.184 340.713 101.189C340.913 100.902 341.108 100.763 341.452 100.764C344.387 100.777 347.321 100.777 350.255 100.764C350.739 100.764 350.765 100.92 350.628 101.359C349.081 106.333 345.807 109.185 341.218 110.432C339.727 110.835 338.208 110.982 336.67 111.01C334.005 111.062 331.38 110.804 328.876 109.772C323.964 107.746 320.853 103.982 319.918 98.3138C319.205 93.9923 319.724 89.8363 321.926 86.0626C323.61 83.1737 325.98 81.1717 328.968 80.1283C333.011 78.7152 337.129 78.6065 341.209 79.8676C346.259 81.4218 349.249 85.2139 350.621 90.6169C351.11 92.5352 351.179 94.5023 351.155 96.4805C351.155 96.9153 350.919 96.8715 350.663 96.8715L340.56 96.877ZM335.924 90.8752C337.69 90.8752 339.457 90.8752 341.226 90.8752C341.434 90.8752 341.707 90.9398 341.606 90.5359C341.235 89.0339 340.621 87.6979 339.412 86.7686C338.202 85.8396 336.833 85.6952 335.41 85.7559C332.809 85.8591 330.846 87.6665 330.29 90.4294C330.21 90.8281 330.307 90.881 330.632 90.8797C332.392 90.8699 334.159 90.8752 335.924 90.8752Z" fill="white"/>
<path d="M126.551 99.2572C126.551 95.926 126.543 92.5935 126.56 89.2578C126.56 88.8114 126.46 88.6656 126.039 88.6824C125.139 88.7211 124.239 88.6825 123.338 88.6954C123.033 88.702 122.938 88.5921 122.938 88.2605C122.948 85.6172 122.948 82.9724 122.938 80.3263C122.938 79.9534 123.059 79.8722 123.372 79.8786C124.256 79.9044 125.141 79.8528 126.022 79.9044C126.485 79.9302 126.571 79.7522 126.562 79.2929C126.534 77.9712 126.522 76.6484 126.562 75.3279C126.641 72.5716 127.069 69.8847 128.5 67.5479C130.406 64.4384 133.084 62.4647 136.444 61.6387C138.799 61.0594 141.118 61.1755 143.386 62.1587C143.813 62.3432 143.949 62.5741 143.944 63.0708C143.919 65.6956 143.933 68.3225 143.933 70.9485C143.933 71.7032 143.933 71.7098 143.333 71.3834C142.263 70.7963 141.15 70.4441 139.932 70.5189C138.251 70.6221 137.108 71.8526 136.952 73.671C136.788 75.5861 136.87 77.5032 136.828 79.4183C136.819 79.808 136.941 79.9046 137.283 79.902C139.334 79.8891 141.385 79.9022 143.433 79.8892C143.816 79.8892 143.949 79.9796 143.946 80.4324C143.928 82.9851 143.928 85.5386 143.946 88.0927C143.946 88.5572 143.846 88.7211 143.391 88.7147C141.425 88.6889 139.458 88.7017 137.489 88.7048C136.755 88.7048 136.836 88.6144 136.836 89.4453C136.836 96.0203 136.836 102.594 136.836 109.167C136.836 109.904 136.836 109.904 136.159 109.904C133.126 109.904 130.092 109.896 127.056 109.913C126.665 109.913 126.548 109.81 126.555 109.37C126.558 106.002 126.551 102.627 126.551 99.2572Z" fill="white"/>
<path d="M356.72 33.6368C354.766 31.0837 350.161 30.4544 347.311 31.9096C346.711 32.2167 346.085 32.4645 345.546 32.8877L328.448 46.365C327.23 47.5197 326.128 48.831 325.955 50.5352C325.797 52.0895 325.955 53.3753 327.206 54.7632C330.037 57.8956 335.035 57.9152 337.418 56.337C339.607 54.8926 354.066 43.2825 356.424 41.3902L357.037 40.7244C357.736 39.678 358.947 36.5486 356.72 33.6368Z" fill="white"/>
<path d="M284.795 54.2864C286.048 52.8985 286.204 51.6126 286.046 50.0583C285.873 48.3542 284.771 47.0424 283.553 45.8882L266.456 32.4109C265.916 31.9864 265.291 31.7386 264.69 31.4328C261.84 29.9775 257.235 30.6071 255.287 33.16C253.059 36.0717 254.27 39.1996 254.975 40.244L255.587 40.9099C257.936 42.8053 272.395 54.4154 274.585 55.8598C276.966 57.4348 281.964 57.4188 284.795 54.2864Z" fill="white"/>
<path d="M306.124 50.7638C309.775 50.7638 312.834 48.9586 313.703 45.6067C313.816 45.1435 313.873 44.6725 313.872 44.1937L313.954 32.1097C313.954 32.0065 313.961 31.9059 313.961 31.8039C313.961 27.1586 310.515 25 306.187 25C301.886 25 298.39 27.5074 298.355 32.1093L298.347 44.291C298.34 44.7671 298.383 45.238 298.476 45.7039C299.219 49.1896 302.359 50.7638 306.124 50.7638Z" fill="white"/>
<path d="M328.69 59.8513C322.888 56.7145 315.219 54.7428 305.206 54.7428C288.428 54.7428 277.177 60.4958 271.461 68.8572H271.547L271.523 68.8958L339.047 68.8893C336.585 65.4244 333.201 62.2847 328.69 59.8513Z" fill="white"/>
<path d="M66.0946 106.483C65.5944 106.932 65.1872 107.314 64.7651 107.679C62.9345 109.278 60.8428 110.134 58.502 110.359C55.1658 110.685 52.0298 110.052 49.1758 108.104C45.7336 105.76 43.8079 102.313 43.2157 97.9805C42.7155 94.3525 43.0446 90.8069 44.6312 87.5333C46.904 82.8488 50.4642 80.0132 55.3349 79.2329C57.8878 78.8226 60.3766 79.0599 62.7544 80.2289C63.8178 80.7514 64.7111 81.5333 65.5224 82.4268C65.6795 82.6009 65.8135 82.7997 65.9586 82.988L66.1096 82.8847C66.1096 82.0783 66.1262 81.2709 66.1016 80.4655C66.0897 80.0578 66.1776 79.8991 66.5928 79.9017C69.6605 79.9275 72.7282 79.9275 75.7959 79.9017C76.139 79.9017 76.252 79.9919 76.252 80.3854C76.2402 90.2021 76.2663 100.019 76.2164 109.84C76.2045 112.114 75.9603 114.391 74.972 116.475C73.5095 119.563 71.2257 121.703 68.3697 123.156C66.142 124.292 63.7681 124.767 61.3203 124.933C58.2813 125.14 55.2922 124.895 52.4172 123.797C48.768 122.41 45.903 119.974 44.0733 116.213C43.7373 115.522 43.5532 114.772 43.4142 114.005C43.3417 113.609 43.3999 113.484 43.8073 113.486C46.3572 113.512 48.9091 113.497 51.458 113.497C52.425 113.497 53.392 113.497 54.359 113.497C54.5661 113.497 54.7381 113.497 54.8321 113.773C55.4453 115.558 56.7567 116.362 58.3883 116.586C59.9959 116.803 61.5834 116.664 63.0459 115.785C64.9065 114.665 65.8279 112.898 66.0199 110.64C66.1351 109.293 66.11 107.944 66.0946 106.483ZM60.0485 101.738C63.5277 101.842 66.5928 98.7473 66.5948 94.7998C66.5948 90.9729 63.8428 87.7611 60.0745 87.76C56.0821 87.76 53.5973 91.362 53.5793 94.7671C53.5591 98.3767 56.4353 101.8 60.0485 101.738Z" fill="white"/>
</svg>
