<?xml version="1.0" encoding="utf-8"?>
<!-- Generator: Adobe Illustrator 26.1.0, SVG Export Plug-In . SVG Version: 6.00 Build 0)  -->
<svg version="1.1" id="Livello_1" xmlns="http://www.w3.org/2000/svg" xmlns:xlink="http://www.w3.org/1999/xlink" x="0px" y="0px"
	 viewBox="0 0 24 24" style="enable-background:new 0 0 24 24;" xml:space="preserve">
<style type="text/css">
	.st0{fill:#3F2834;}
</style>
<g id="SVGRepo_bgCarrier">
</g>
<g id="SVGRepo_tracerCarrier">
</g>
<g id="SVGRepo_iconCarrier">
	<g id="Pill">
		<path class="st0" d="M19.3,4.7c-2.1-2.1-5.6-2.1-7.8,0c0,0,0,0,0,0l-6.8,6.8c-2.1,2.1-2.1,5.6,0,7.8c1,1,2.4,1.6,3.9,1.6
			c1.5,0,2.9-0.6,3.9-1.6l6.8-6.8C21.5,10.3,21.5,6.8,19.3,4.7C19.3,4.7,19.3,4.7,19.3,4.7z M18.6,11.8l-3.4,3.4L8.8,8.8l3.4-3.4
			c1.8-1.8,4.6-1.8,6.4,0c0.8,0.8,1.3,2,1.3,3.2C19.9,9.8,19.5,10.9,18.6,11.8z"/>
	</g>
</g>
</svg>
