<svg width="46" height="46" viewBox="0 0 46 46" fill="none" xmlns="http://www.w3.org/2000/svg">
<path d="M22.9996 0C10.3172 0 0 10.3176 0 22.9996C0 35.682 10.3172 46 22.9996 46C35.6812 46 45.9992 35.682 45.9992 22.9996C45.9992 10.3176 35.6812 0 22.9996 0ZM29.4999 14.5192C29.4999 14.6281 29.4567 14.7325 29.3797 14.8095C29.3026 14.8866 29.1982 14.9298 29.0893 14.9298L26.4748 14.9315C24.7497 14.9315 24.4343 15.6033 24.4343 16.9263V19.671H28.9185C29.0363 19.671 29.1488 19.7219 29.2264 19.8106C29.304 19.8993 29.3402 20.0172 29.3258 20.1342L28.6873 25.0753C28.6745 25.1743 28.6261 25.2653 28.5511 25.3312C28.4762 25.3971 28.3797 25.4334 28.2799 25.4334H24.4343V37.7027C24.4343 37.8116 24.3911 37.9161 24.3141 37.9931C24.2371 38.0701 24.1326 38.1134 24.0237 38.1134H18.922C18.8131 38.1134 18.7086 38.0701 18.6316 37.9931C18.5546 37.9161 18.5114 37.8116 18.5114 37.7027V25.4334H14.6535C14.5446 25.4334 14.4401 25.3902 14.3631 25.3131C14.2861 25.2361 14.2428 25.1317 14.2428 25.0228V20.0816C14.2428 19.9727 14.2861 19.8683 14.3631 19.7913C14.4401 19.7143 14.5446 19.671 14.6535 19.671H18.5114V16.4373C18.5114 12.1543 21.1033 9.49426 25.2766 9.49426C27.0706 9.49426 28.6561 9.62772 29.1431 9.69218C29.2418 9.70523 29.3324 9.75369 29.398 9.82855C29.4637 9.9034 29.4999 9.99956 29.4999 10.0991V14.5192Z" fill="white"/>
</svg>
