<svg width="46" height="46" viewBox="0 0 46 46" fill="none" xmlns="http://www.w3.org/2000/svg">
<path d="M23.0004 26.7567C25.0673 26.7567 26.7429 25.0542 26.7429 22.954C26.7429 20.8539 25.0673 19.1514 23.0004 19.1514C20.9334 19.1514 19.2578 20.8539 19.2578 22.954C19.2578 25.0542 20.9334 26.7567 23.0004 26.7567Z" fill="white"/>
<path d="M31.0761 14.8855C30.2552 14.0513 29.1143 13.6343 27.7561 13.6343H18.3454C16.9752 13.6343 15.7891 14.0513 15.0255 14.8395C14.2619 15.6276 13.791 16.8328 13.791 18.2128V27.7195C13.791 29.1577 14.2045 30.3169 15.0255 31.1511C15.8464 31.9852 16.9873 32.3563 18.3454 32.3563H27.6535C29.0238 32.3563 30.1647 31.9392 30.9735 31.1511C31.4114 30.712 31.7551 30.1857 31.9831 29.6052C32.2111 29.0246 32.3185 28.4025 32.2985 27.7777V18.2251C32.3292 16.9935 31.8913 15.7974 31.0761 14.8855ZM22.9995 28.8879C22.2212 28.9059 21.4472 28.7656 20.7229 28.4754C19.9987 28.1852 19.3389 27.7509 18.7821 27.1979C18.2254 26.645 17.7831 25.9846 17.4811 25.2555C17.1791 24.5264 17.0235 23.7434 17.0235 22.9523C17.0235 22.1613 17.1791 21.3783 17.4811 20.6492C17.7831 19.9201 18.2254 19.2597 18.7821 18.7068C19.3389 18.1538 19.9987 17.7195 20.7229 17.4293C21.4472 17.1391 22.2212 16.9988 22.9995 17.0168C24.5258 17.0521 25.9779 17.6929 27.0451 18.8022C28.1124 19.9115 28.7099 21.4011 28.7099 22.9523C28.7099 24.5036 28.1124 25.9932 27.0451 27.1025C25.9779 28.2118 24.5258 28.8526 22.9995 28.8879ZM29.069 18.2251C28.8075 18.2251 28.5518 18.1464 28.3342 17.999C28.1166 17.8516 27.9468 17.6421 27.8461 17.3968C27.7455 17.1515 27.7186 16.8815 27.7687 16.6206C27.8189 16.3598 27.9439 16.1199 28.128 15.9312C28.3121 15.7424 28.547 15.6132 28.8032 15.5599C29.0595 15.5066 29.3255 15.5315 29.5678 15.6315C29.8101 15.7316 30.0179 15.9022 30.1649 16.122C30.3119 16.3417 30.3916 16.6008 30.394 16.8665C30.3956 17.0444 30.3625 17.2208 30.2967 17.3855C30.2308 17.5503 30.1334 17.7001 30.0102 17.8264C29.8871 17.9528 29.7405 18.053 29.5789 18.1214C29.4174 18.1899 29.2441 18.2251 29.069 18.2251Z" fill="white"/>
<path d="M22.9997 0C18.5226 0 14.1461 1.34893 10.4236 3.8762C6.70104 6.40347 3.79967 9.99558 2.08638 14.1983C0.373089 18.401 -0.0751862 23.0255 0.798243 27.4871C1.67167 31.9486 3.82758 36.0468 6.99333 39.2635C10.1591 42.4801 14.1925 44.6706 18.5835 45.5581C22.9745 46.4455 27.526 45.99 31.6622 44.2492C35.7985 42.5084 39.3338 39.5604 41.8211 35.7781C44.3084 31.9958 45.636 27.549 45.636 23C45.636 16.9 43.2511 11.0499 39.006 6.73654C34.7608 2.42321 29.0032 0 22.9997 0ZM34.3178 27.7748C34.3178 29.7712 33.678 31.4855 32.4466 32.6815C31.2151 33.8775 29.6155 34.4908 27.6537 34.4908H18.3456C16.4743 34.4908 14.8294 33.8775 13.598 32.6815C12.3666 31.4855 11.6815 29.716 11.6815 27.7196V18.2129C11.6815 14.1772 14.3284 11.4877 18.2973 11.4877H27.699C29.6155 11.4877 31.3057 12.1379 32.4918 13.3891C33.678 14.5943 34.3178 16.2625 34.3178 18.2129V27.7748Z" fill="white"/>
</svg>
