<svg width="46" height="46" viewBox="0 0 46 46" fill="none" xmlns="http://www.w3.org/2000/svg">
<path d="M22.6364 0C18.1593 0 13.7828 1.34893 10.0603 3.8762C6.33775 6.40347 3.43639 9.99558 1.7231 14.1983C0.00980802 18.401 -0.438468 23.0255 0.434962 27.4871C1.30839 31.9486 3.4643 36.0468 6.63005 39.2635C9.7958 42.4801 13.8292 44.6706 18.2202 45.5581C22.6113 46.4455 27.1627 45.99 31.2989 44.2492C35.4352 42.5084 38.9705 39.5604 41.4578 35.7781C43.9451 31.9958 45.2727 27.549 45.2727 23C45.2727 16.9 42.8878 11.0499 38.6427 6.73654C34.3976 2.42321 28.6399 0 22.6364 0ZM27.0339 34.6533L21.0639 25.8152L13.5818 34.6533H11.2276L20.0106 24.2819L11.279 11.3467H18.2389L23.8889 19.7003L30.9605 11.3467H33.3117L24.9332 21.2459L33.9878 34.6411L27.0339 34.6533Z" fill="white"/>
</svg>
